<svg width="34" height="30" viewBox="0 0 34 30" fill="white" xmlns="http://www.w3.org/2000/svg">
    <path id="soundButtonSVG" d="M16.6549 29.4019C12.6927 26.5564 9.68836 24.2893 5.61532 21.2553H2.81497C0.0686865 21.2553 -0.0622124 18.4072 0.014614 14.9999C0.106381 10.9295 0.019527 8.74442 2.82553 8.74442H5.63645C9.31295 6.08775 12.8293 3.19607 16.5641 0.623196C17.5301 -0.0248035 18.2252 -0.415159 18.3518 0.729772L18.2589 29.8176C18.0514 30.1502 17.6148 30.0372 16.6549 29.402L16.6549 29.4019ZM26.4319 28.3047C25.6675 27.5403 25.8112 26.9141 27.0682 25.5316C28.5627 23.888 29.8236 21.8484 30.4573 19.3005C31.1601 16.4747 31.2495 13.309 30.4573 10.6992C29.6947 8.18694 28.5627 6.11178 27.0682 4.46817C25.8112 3.0857 25.6675 2.45942 26.4319 1.69501C27.3734 0.753455 28.3639 1.29535 30.194 3.7534C33.0498 7.58901 34.3633 12.501 33.7879 17.1934C33.3995 20.3608 32.072 23.7233 30.2361 26.1896C28.3622 28.7069 27.3801 29.2529 26.4319 28.3047ZM22.7264 23.9656C21.4801 23.0825 22.3042 21.9527 22.932 21.1659C24.5079 19.1911 25.1945 17.3274 25.1905 15.0061C25.1863 12.5694 24.4378 10.5476 22.8407 8.65878C21.9362 7.58902 21.8355 6.9957 22.4395 6.29358C23.0059 5.63511 23.9006 5.67892 24.6562 6.40205C25.8964 7.5892 27.2066 9.91682 27.7227 11.8496C28.2185 13.7067 28.177 16.5093 27.6262 18.3621C27.0144 20.4198 25.4227 23.0936 24.371 23.8302C24.043 24.06 23.0945 24.2263 22.7264 23.9656L22.7264 23.9656Z"  />
</svg>
